<svg id="svg" version="1.1" xmlns="http://www.w3.org/2000/svg" xmlns:xlink="http://www.w3.org/1999/xlink" width="400" height="400" viewBox="0, 0, 400,400"><g id="svgg"><path id="path0" d="M106.400 3.200 L 106.400 6.400 103.100 6.479 C 101.285 6.522,99.018 6.511,98.062 6.455 C 96.979 6.391,96.416 6.503,96.571 6.752 C 96.716 6.988,96.378 7.121,95.753 7.077 C 95.112 7.030,94.604 7.239,94.479 7.600 C 94.293 8.133,94.351 8.133,94.999 7.600 C 95.684 7.036,95.696 7.053,95.184 7.874 C 94.885 8.355,94.536 8.684,94.408 8.605 C 94.280 8.526,94.126 10.739,94.064 13.522 C 93.930 19.574,94.557 18.878,89.205 18.912 C 86.761 18.927,84.665 19.096,84.547 19.286 C 84.429 19.477,84.033 19.539,83.666 19.425 C 81.904 18.878,81.665 19.752,81.482 27.394 L 81.387 31.387 77.394 31.482 C 69.752 31.665,68.878 31.904,69.425 33.666 C 69.539 34.033,69.450 34.445,69.227 34.583 C 68.956 34.751,68.817 66.149,68.806 129.819 L 68.789 224.805 195.980 224.702 C 312.564 224.609,323.225 224.546,323.819 223.953 C 324.210 223.561,324.556 222.317,324.693 220.805 C 325.055 216.816,329.089 212.400,332.371 212.400 C 334.607 212.400,336.403 211.644,336.829 210.525 C 337.053 209.934,337.200 171.888,337.200 114.144 L 337.200 18.741 338.171 15.871 C 339.298 12.541,340.982 9.345,342.520 7.619 C 343.502 6.516,343.600 6.118,343.600 3.203 L 343.600 0.000 225.000 0.000 L 106.400 0.000 106.400 3.200 M321.800 10.748 C 330.226 14.775,329.461 23.937,320.411 27.396 C 316.694 28.816,315.795 29.988,315.011 34.435 C 314.685 36.286,314.013 39.060,313.518 40.600 L 312.618 43.400 312.526 124.983 L 312.435 206.566 311.307 208.171 C 310.687 209.053,309.405 210.365,308.459 211.087 L 306.738 212.400 206.777 212.400 L 106.817 212.400 103.908 213.364 C 102.309 213.894,99.305 214.614,97.234 214.963 L 93.468 215.598 91.234 214.578 C 88.264 213.222,86.177 211.119,85.194 208.491 C 84.280 206.050,83.929 43.381,84.829 39.800 C 85.050 38.920,85.286 37.930,85.352 37.600 C 85.589 36.416,88.858 34.853,91.600 34.612 C 95.337 34.284,96.757 32.839,97.186 28.929 C 97.354 27.401,97.734 25.712,98.030 25.176 C 98.327 24.639,98.532 24.065,98.485 23.900 C 98.438 23.735,98.535 23.638,98.700 23.685 C 98.865 23.732,99.450 23.515,100.000 23.204 C 101.148 22.555,101.412 22.492,104.400 22.155 C 106.746 21.891,111.923 19.469,112.428 18.400 C 112.584 18.070,113.047 17.103,113.456 16.252 C 113.869 15.392,114.911 14.236,115.800 13.652 L 117.400 12.600 211.800 12.499 C 296.810 12.407,306.390 12.334,308.114 11.762 C 314.710 9.572,318.718 9.275,321.800 10.748 M116.946 51.140 C 115.289 52.340,113.200 54.614,113.200 55.217 C 113.200 55.412,112.665 56.181,112.012 56.926 C 107.915 61.592,107.939 61.194,108.098 120.400 C 108.256 179.398,108.064 176.844,112.666 181.278 C 116.223 184.706,107.157 184.381,199.619 184.391 L 281.438 184.400 282.919 182.883 L 284.400 181.366 284.391 118.383 C 284.381 48.408,284.578 53.747,281.905 50.900 L 281.061 50.000 199.790 50.000 L 118.520 50.000 116.946 51.140 M270.011 63.060 C 271.614 64.131,273.594 66.105,274.453 67.490 L 275.253 68.779 273.981 70.627 C 273.282 71.643,271.885 72.998,270.877 73.637 L 269.043 74.800 200.114 74.800 L 131.184 74.800 129.692 75.755 C 128.076 76.789,126.537 78.369,125.473 80.086 C 124.853 81.086,124.800 84.636,124.800 125.108 L 124.800 169.043 123.637 170.877 C 122.998 171.885,121.618 173.300,120.571 174.020 L 118.668 175.329 117.709 174.165 C 117.182 173.524,116.223 172.100,115.579 171.000 L 114.408 169.000 114.405 118.600 L 114.403 68.200 115.252 66.800 C 115.719 66.030,116.634 64.725,117.284 63.900 L 118.467 62.400 193.745 62.400 C 263.054 62.400,269.100 62.452,270.011 63.060 M270.802 78.520 C 271.571 78.857,272.740 79.580,273.400 80.128 L 274.600 81.124 274.528 124.779 L 274.456 168.434 273.401 170.234 C 271.346 173.742,270.115 174.260,263.065 174.591 C 255.990 174.922,255.918 174.900,254.173 171.849 L 253.000 169.800 252.800 143.800 L 252.600 117.800 251.400 115.450 C 250.049 112.803,248.558 111.487,245.666 110.388 L 243.685 109.636 241.632 110.659 C 239.698 111.623,238.303 113.032,237.236 115.100 C 236.797 115.952,236.869 115.939,238.579 114.854 C 243.097 111.989,245.725 112.536,248.700 116.958 L 250.000 118.890 250.000 143.661 C 250.000 172.467,250.264 170.898,244.811 174.540 C 243.145 175.652,182.230 175.538,180.034 174.418 C 174.888 171.792,174.330 167.499,178.695 164.105 C 180.986 162.323,180.990 162.322,183.681 163.183 C 189.568 165.068,191.444 165.200,212.267 165.200 C 236.073 165.200,236.546 165.089,239.365 158.807 L 240.448 156.392 240.324 142.896 L 240.200 129.400 239.126 126.458 C 237.994 123.359,236.116 120.151,235.686 120.581 C 235.546 120.721,234.939 122.186,234.337 123.836 L 233.244 126.836 234.422 129.107 L 235.600 131.378 235.600 143.844 L 235.600 156.309 233.669 158.366 L 231.739 160.422 211.969 160.311 L 192.200 160.200 188.300 158.291 L 184.400 156.382 184.400 143.849 L 184.400 131.316 186.653 129.185 L 188.907 127.054 187.953 126.305 C 186.146 124.887,185.393 124.255,183.245 122.352 C 181.416 120.733,180.749 120.398,178.845 120.142 C 176.273 119.797,176.427 119.830,175.483 119.416 C 175.088 119.243,174.687 119.180,174.590 119.277 C 174.303 119.563,176.273 127.242,177.168 129.328 C 179.672 135.161,170.023 137.146,161.558 132.539 L 159.600 131.473 159.600 118.711 L 159.600 105.949 163.500 104.075 L 167.400 102.200 186.897 102.089 L 206.394 101.978 208.182 103.626 C 210.340 105.615,210.633 106.390,209.821 107.960 C 208.852 109.833,209.051 110.311,211.272 111.436 C 215.151 113.402,216.540 113.756,216.223 112.699 C 216.075 112.204,215.784 110.409,215.575 108.708 C 214.891 103.115,212.662 99.741,208.462 97.941 C 206.721 97.195,205.741 97.166,186.021 97.293 L 165.400 97.425 161.600 98.494 C 159.510 99.082,157.388 99.684,156.885 99.832 C 156.148 100.049,155.663 99.768,154.385 98.384 C 152.563 96.410,152.582 96.328,153.453 102.372 C 154.345 108.558,153.452 113.545,150.750 117.472 C 149.606 119.136,149.600 119.174,149.600 125.299 C 149.600 129.376,149.411 132.121,149.039 133.427 C 146.116 143.707,147.071 148.090,153.000 151.617 C 154.491 152.504,155.117 152.583,162.200 152.784 C 169.543 152.993,169.862 153.036,171.632 154.077 C 174.443 155.730,174.541 155.940,173.810 158.761 C 173.464 160.098,172.914 162.974,172.588 165.152 C 171.941 169.480,171.262 171.448,169.716 173.475 L 168.705 174.800 149.968 174.800 C 128.722 174.800,130.581 175.101,128.835 171.385 C 127.876 169.346,127.736 160.266,127.900 110.956 L 128.000 80.912 129.386 79.556 L 130.773 78.200 142.086 78.000 C 170.914 77.490,269.360 77.888,270.802 78.520 M167.800 84.788 C 154.821 85.017,155.134 84.964,154.051 87.127 C 152.510 90.205,152.614 90.892,154.359 89.147 L 155.906 87.600 187.453 87.610 L 219.000 87.620 220.895 89.010 C 224.504 91.658,224.800 92.530,224.800 100.505 C 224.800 105.030,224.613 108.148,224.258 109.513 C 223.675 111.764,223.908 111.810,225.704 109.800 C 227.713 107.551,228.000 106.336,228.000 100.087 C 228.000 91.174,226.789 88.490,221.600 85.907 L 218.600 84.413 199.200 84.495 C 188.530 84.540,174.400 84.672,167.800 84.788 M160.600 138.713 C 162.360 139.167,165.150 139.751,166.800 140.010 C 171.931 140.815,175.609 142.888,174.752 144.491 C 172.408 148.869,169.842 150.000,162.247 150.000 L 156.062 150.000 154.343 148.688 C 151.358 146.412,149.896 144.162,150.563 142.873 C 151.928 140.237,155.702 137.038,156.800 137.587 C 157.130 137.752,158.840 138.259,160.600 138.713 M354.536 195.889 C 352.779 198.545,352.225 199.743,350.998 203.531 C 349.244 208.952,345.589 212.800,342.195 212.800 C 338.790 212.800,337.600 214.051,337.600 217.629 C 337.600 221.074,332.930 225.200,329.031 225.200 C 325.761 225.200,325.200 225.771,325.200 229.100 C 325.200 231.900,323.995 233.896,320.857 236.288 L 319.138 237.600 199.832 237.600 C 84.180 237.600,80.458 237.577,78.343 236.849 C 75.479 235.864,73.017 234.603,70.788 232.981 L 68.977 231.662 58.388 231.628 C 44.957 231.585,45.534 231.569,45.783 231.973 C 45.900 232.162,45.717 232.423,45.377 232.554 C 44.970 232.709,44.844 232.621,45.009 232.295 C 45.147 232.023,45.007 232.107,44.699 232.482 C 44.294 232.974,44.114 234.587,44.052 238.279 C 43.949 244.469,44.469 243.949,38.279 244.052 C 34.587 244.114,32.974 244.294,32.482 244.699 C 32.107 245.007,32.023 245.147,32.295 245.009 C 32.621 244.844,32.709 244.970,32.554 245.377 C 32.423 245.717,32.186 245.915,32.026 245.816 C 31.599 245.552,31.591 246.227,31.492 290.593 L 31.400 331.387 27.400 331.482 C 19.751 331.665,18.878 331.904,19.425 333.666 C 19.539 334.033,19.477 334.429,19.286 334.547 C 19.096 334.665,18.927 336.761,18.912 339.205 C 18.878 344.557,19.574 343.930,13.522 344.064 C 10.739 344.126,8.526 344.280,8.605 344.408 C 8.684 344.536,8.355 344.885,7.874 345.184 C 7.053 345.696,7.036 345.684,7.600 344.999 C 8.133 344.351,8.133 344.293,7.600 344.479 C 7.239 344.604,7.030 345.112,7.077 345.753 C 7.121 346.378,6.988 346.716,6.752 346.571 C 6.503 346.416,6.391 346.979,6.455 348.062 C 6.511 349.018,6.522 351.285,6.479 353.100 L 6.400 356.400 3.200 356.400 L 0.000 356.400 0.000 375.000 L 0.000 393.600 3.400 393.600 C 5.270 393.600,6.800 393.449,6.800 393.264 C 6.800 392.663,10.529 390.906,13.400 390.155 C 16.081 389.453,22.195 389.412,157.400 389.192 C 288.631 388.979,298.840 388.915,302.000 388.277 C 309.013 386.862,310.857 385.747,312.000 382.225 C 312.728 379.983,317.655 375.139,319.879 374.479 C 322.110 373.817,323.780 372.069,324.631 369.506 C 325.548 366.745,328.984 363.243,331.800 362.199 C 336.861 360.322,337.200 359.469,337.200 348.618 C 337.200 338.218,336.930 337.600,332.386 337.600 C 328.845 337.600,327.005 331.991,329.482 328.744 C 331.181 326.516,331.115 326.536,333.205 327.602 C 336.115 329.087,337.600 330.702,337.600 332.382 C 337.600 336.929,338.218 337.200,348.593 337.200 C 359.440 337.200,360.306 336.856,362.194 331.800 C 363.193 329.122,366.714 325.620,369.400 324.631 C 370.500 324.226,371.910 323.424,372.533 322.848 C 374.913 320.646,374.799 323.045,374.810 275.051 C 374.815 248.722,374.972 230.356,375.198 229.400 C 375.407 228.520,375.954 225.010,376.414 221.600 C 377.674 212.266,378.260 210.099,380.258 207.396 C 381.184 206.144,381.493 198.580,380.671 197.296 C 380.493 197.019,380.454 196.460,380.583 196.053 C 380.727 195.599,380.544 195.098,380.109 194.756 C 379.452 194.241,379.444 194.256,380.000 194.964 C 380.568 195.688,380.554 195.700,379.726 195.184 C 379.245 194.885,378.929 194.514,379.024 194.361 C 379.119 194.207,373.932 194.058,367.498 194.029 L 355.800 193.977 354.536 195.889 M369.506 214.096 C 370.616 216.373,370.705 218.499,369.822 221.619 L 368.977 224.600 366.253 224.719 C 362.749 224.872,362.400 224.574,362.400 221.429 C 362.400 216.556,367.925 210.854,369.506 214.096 M362.347 229.000 C 362.394 233.978,359.128 237.223,353.666 237.626 C 349.929 237.902,350.290 238.239,350.083 234.285 C 349.794 228.784,353.862 224.486,358.888 224.981 C 360.985 225.188,361.609 225.130,361.640 224.724 C 361.757 223.181,362.324 226.609,362.347 229.000 M349.960 241.269 C 350.006 244.354,348.880 246.268,345.588 248.697 C 340.954 252.117,341.273 251.566,340.206 258.000 C 339.676 261.190,338.874 264.863,338.422 266.163 C 337.628 268.446,337.600 269.344,337.600 292.837 C 337.600 306.587,337.441 317.566,337.234 318.111 C 336.800 319.252,335.620 319.780,331.684 320.593 C 325.466 321.878,324.025 323.761,322.836 332.155 C 322.126 337.165,320.533 339.981,318.060 340.598 C 316.532 340.979,315.600 341.964,315.600 343.198 C 315.600 347.930,307.896 354.685,305.261 352.263 C 300.264 347.669,301.738 340.221,307.800 339.437 C 313.006 338.764,312.821 338.839,313.629 337.058 C 315.060 333.907,314.352 326.741,312.329 323.900 C 307.967 317.775,293.469 321.470,291.121 329.305 C 290.570 331.144,281.483 340.542,279.861 340.949 C 279.294 341.091,278.694 341.691,278.394 342.416 C 277.587 344.362,268.736 352.945,268.000 352.493 C 265.845 351.170,263.911 344.906,265.005 342.791 C 266.006 340.855,268.210 339.674,271.400 339.364 C 276.121 338.905,276.725 338.156,276.846 332.600 C 277.074 322.186,270.956 318.410,260.308 322.394 C 257.091 323.597,253.228 327.992,253.193 330.487 C 253.182 331.236,244.140 340.094,242.661 340.803 C 241.970 341.134,241.134 341.972,240.803 342.666 C 239.903 344.547,231.447 352.870,230.718 352.590 C 229.169 351.995,227.200 347.476,227.200 344.513 C 227.200 341.752,229.550 339.816,233.400 339.404 C 238.658 338.841,239.296 338.091,239.346 332.413 C 239.430 323.112,235.339 319.620,226.483 321.430 C 220.967 322.557,217.733 324.969,216.211 329.090 C 215.399 331.288,206.582 340.567,204.906 340.988 C 204.332 341.132,203.727 341.745,203.399 342.514 C 202.352 344.970,193.844 352.959,192.902 352.371 C 191.405 351.436,189.600 346.896,189.600 344.063 C 189.600 342.087,192.636 339.738,195.600 339.422 C 200.793 338.868,201.311 338.401,201.855 333.773 C 202.689 326.677,198.906 320.800,193.505 320.800 C 186.448 320.800,180.863 323.918,178.796 329.011 C 178.026 330.908,169.320 340.400,168.350 340.400 C 167.812 340.400,165.600 342.468,165.600 342.970 C 165.600 343.245,163.436 345.633,160.792 348.278 L 155.983 353.086 154.765 351.699 C 152.480 349.096,151.460 344.282,152.796 342.405 C 154.129 340.533,155.612 339.721,158.200 339.446 C 163.416 338.892,164.021 338.274,164.317 333.190 C 164.877 323.580,160.417 319.558,151.283 321.433 C 145.809 322.557,142.775 324.796,141.297 328.800 C 140.381 331.282,131.732 340.479,129.876 340.945 C 129.298 341.090,128.698 341.681,128.401 342.398 C 127.583 344.372,118.751 352.964,118.011 352.504 C 115.637 351.030,113.865 344.761,115.208 342.587 C 116.432 340.607,118.217 339.680,121.415 339.366 C 126.205 338.895,126.765 338.153,126.838 332.186 C 126.934 324.380,123.340 320.338,116.841 320.942 C 109.621 321.613,105.634 324.144,103.676 329.303 C 102.914 331.311,94.827 339.740,92.643 340.803 C 91.962 341.134,91.134 341.962,90.803 342.643 C 89.905 344.488,81.404 352.853,80.701 352.584 C 79.168 351.995,77.200 347.459,77.200 344.513 C 77.200 341.752,79.550 339.816,83.400 339.404 C 88.701 338.836,89.336 338.065,89.328 332.200 C 89.316 322.944,85.088 319.461,76.279 321.450 C 73.225 322.139,70.093 323.524,69.227 324.568 C 68.553 325.380,64.362 326.669,59.883 327.442 C 55.371 328.220,53.259 327.643,50.400 324.850 C 46.636 321.174,46.811 323.030,46.824 287.102 C 46.837 250.905,46.927 249.773,49.912 248.255 C 52.693 246.841,54.178 246.826,194.842 246.851 L 333.484 246.875 335.134 246.034 C 336.101 245.540,337.055 244.656,337.439 243.896 C 339.636 239.553,342.302 237.600,346.036 237.600 C 347.766 237.600,348.864 237.420,349.059 237.104 C 349.522 236.356,349.914 238.169,349.960 241.269 M192.800 275.510 C 191.164 276.554,189.205 278.506,188.294 280.000 C 187.825 280.770,186.952 282.030,186.354 282.800 C 182.323 287.991,182.455 297.867,186.603 301.519 C 189.926 304.444,189.336 304.400,225.082 304.399 C 259.642 304.397,261.584 304.527,262.865 306.922 C 263.588 308.273,266.498 311.230,267.733 311.869 C 269.223 312.639,271.346 311.308,273.743 308.100 C 276.205 304.805,276.701 304.714,293.800 304.398 C 309.844 304.101,310.587 303.992,313.397 301.519 C 319.565 296.089,316.070 280.879,307.451 275.645 C 305.665 274.561,194.495 274.430,192.800 275.510 M87.375 288.100 L 86.200 289.400 87.500 288.225 C 88.712 287.130,88.984 286.800,88.675 286.800 C 88.606 286.800,88.021 287.385,87.375 288.100 M307.725 288.900 C 308.483 289.835,309.486 291.360,309.954 292.289 L 310.805 293.978 308.579 296.203 L 306.354 298.429 292.877 298.386 C 281.678 298.350,278.656 298.463,275.000 299.059 C 269.544 299.947,267.701 299.953,262.400 299.098 C 258.725 298.505,254.162 298.414,225.867 298.369 L 193.534 298.317 191.354 296.137 L 189.174 293.956 190.228 292.019 C 190.808 290.954,191.817 289.434,192.470 288.641 L 193.658 287.200 250.002 287.200 L 306.346 287.200 307.725 288.900 M85.050 291.991 C 84.693 292.885,84.424 294.378,84.452 295.308 C 84.502 296.919,84.519 296.894,84.790 294.790 C 84.947 293.575,85.298 292.164,85.570 291.656 C 85.842 291.147,85.983 290.649,85.882 290.549 C 85.782 290.449,85.408 291.098,85.050 291.991 M115.314 295.000 C 115.317 296.100,115.395 296.503,115.487 295.895 C 115.579 295.286,115.577 294.386,115.482 293.895 C 115.387 293.403,115.311 293.900,115.314 295.000 M82.579 328.048 C 84.915 330.824,84.958 331.278,83.060 333.141 C 81.394 334.776,81.330 334.800,79.494 334.457 C 74.019 333.434,73.904 330.841,79.200 327.832 C 81.442 326.558,81.319 326.551,82.579 328.048 M120.518 328.744 C 122.375 331.179,122.367 331.575,120.423 333.332 C 118.677 334.909,117.034 335.000,114.646 333.652 C 111.664 331.967,112.144 330.572,116.600 327.974 C 119.098 326.517,118.771 326.453,120.518 328.744 M159.074 330.154 C 160.278 332.461,157.267 335.063,154.164 334.398 C 148.962 333.282,148.902 330.824,154.009 328.032 L 156.194 326.836 157.333 327.918 C 157.959 328.513,158.742 329.519,159.074 330.154 M194.873 327.900 C 199.007 332.344,195.623 336.184,189.727 333.739 C 186.466 332.388,187.328 330.047,191.996 327.578 C 193.795 326.626,193.677 326.613,194.873 327.900 M232.579 328.048 C 234.915 330.824,234.958 331.278,233.060 333.141 C 231.394 334.776,231.330 334.800,229.494 334.457 C 224.019 333.434,223.904 330.841,229.200 327.832 C 231.442 326.558,231.319 326.551,232.579 328.048 M270.518 328.744 C 272.375 331.179,272.367 331.575,270.423 333.332 C 268.712 334.877,267.186 334.985,264.704 333.735 C 261.537 332.141,262.243 330.260,266.962 327.718 C 269.075 326.580,268.810 326.504,270.518 328.744 M307.474 328.100 C 310.773 331.586,308.776 335.387,304.164 334.398 C 298.885 333.266,298.953 330.981,304.362 327.738 C 306.227 326.620,306.053 326.599,307.474 328.100 M46.400 335.429 C 49.042 336.656,50.590 338.050,51.697 340.200 C 53.420 343.546,53.631 343.126,47.016 349.521 C 39.521 356.766,39.924 355.873,42.901 358.629 C 49.725 364.947,58.543 365.837,66.548 361.015 L 68.897 359.600 75.000 359.600 L 81.103 359.600 83.403 360.985 C 90.455 365.231,99.244 364.999,105.074 360.413 C 106.272 359.471,118.870 359.142,119.424 360.038 C 119.938 360.870,125.327 363.174,128.312 363.838 C 132.392 364.745,138.607 363.281,142.273 360.549 C 143.843 359.379,156.251 359.056,157.168 360.161 C 159.257 362.679,167.663 364.814,171.718 363.858 C 174.758 363.142,180.076 360.849,180.576 360.038 C 181.128 359.146,193.496 359.472,194.819 360.413 C 201.309 365.035,209.514 365.250,216.597 360.985 L 218.897 359.600 225.000 359.600 L 231.103 359.600 233.403 360.985 C 240.486 365.250,248.691 365.035,255.181 360.413 C 256.504 359.472,268.872 359.146,269.424 360.038 C 269.924 360.849,275.242 363.142,278.282 363.858 C 282.399 364.829,288.386 363.393,292.335 360.488 C 294.955 358.560,305.653 361.195,309.685 364.761 C 311.800 366.632,312.783 368.758,311.783 369.299 C 311.352 369.532,310.100 370.676,309.000 371.842 C 307.900 373.008,305.470 375.591,303.600 377.581 C 300.299 381.095,300.106 381.229,296.970 382.203 L 293.740 383.206 154.970 383.103 C -0.944 382.987,13.786 383.316,12.076 379.914 C 9.729 375.245,8.962 365.651,10.698 362.678 C 11.859 360.691,14.248 359.676,17.906 359.615 C 19.903 359.582,21.637 357.248,22.240 353.783 C 23.054 349.101,24.929 347.202,28.740 347.201 C 32.483 347.199,34.295 345.448,34.666 341.474 C 35.098 336.844,36.460 335.305,40.600 334.771 C 43.902 334.344,44.116 334.369,46.400 335.429 M71.367 339.914 C 72.605 342.482,71.902 346.412,69.727 349.096 C 69.166 349.787,68.406 350.054,66.404 350.263 C 63.160 350.602,62.800 350.962,62.799 353.871 C 62.799 356.178,62.783 356.210,61.099 357.255 C 56.603 360.046,55.817 360.074,51.878 357.585 L 49.956 356.371 51.190 354.813 C 53.845 351.461,56.084 349.999,58.978 349.729 C 60.429 349.594,61.524 349.391,61.412 349.278 C 61.299 349.166,61.397 348.844,61.630 348.564 C 61.862 348.284,62.153 347.008,62.277 345.728 C 62.526 343.146,63.290 341.621,65.274 339.747 C 68.310 336.877,69.926 336.922,71.367 339.914 M108.349 339.026 C 111.028 342.432,108.570 350.276,104.806 350.328 C 100.881 350.382,100.382 350.870,100.329 354.711 C 100.308 356.214,100.191 356.356,97.826 357.740 C 94.148 359.891,93.513 359.910,90.050 357.970 L 87.100 356.317 90.395 353.005 C 93.396 349.988,93.831 349.691,95.277 349.671 C 99.102 349.618,99.565 349.167,99.658 345.400 C 99.693 343.958,100.014 343.477,102.917 340.523 C 106.403 336.975,106.676 336.900,108.349 339.026 M145.975 339.255 C 148.576 343.533,146.245 349.662,141.805 350.217 C 138.692 350.606,137.921 351.339,137.689 354.130 C 137.507 356.323,137.445 356.427,135.638 357.538 C 131.600 360.023,130.349 359.940,125.673 356.879 L 124.746 356.272 127.853 353.147 C 130.858 350.124,131.035 350.013,133.273 349.760 C 136.452 349.400,136.889 348.990,137.103 346.160 C 137.281 343.823,137.314 343.768,140.510 340.523 C 144.057 336.921,144.494 336.820,145.975 339.255 M183.748 339.835 C 186.018 344.555,183.463 349.819,178.685 350.265 C 175.639 350.549,175.276 350.966,175.108 354.376 L 175.000 356.551 172.048 358.137 C 168.697 359.937,168.190 359.894,164.274 357.484 L 162.322 356.284 165.461 353.146 C 168.599 350.008,168.600 350.008,171.200 349.738 C 174.330 349.414,174.770 348.956,174.787 346.008 L 174.800 343.817 178.084 340.515 C 181.786 336.794,182.258 336.738,183.748 339.835 M221.367 339.914 C 223.371 344.073,220.686 350.225,216.813 350.346 C 213.485 350.449,212.800 351.165,212.800 354.542 C 212.800 356.318,210.962 357.902,207.293 359.287 C 206.034 359.763,201.558 357.995,200.358 356.549 C 199.433 355.435,205.867 349.797,208.177 349.697 C 211.386 349.557,212.400 348.357,212.400 344.697 C 212.400 343.727,213.016 342.881,215.585 340.318 L 218.771 337.141 219.753 337.870 C 220.293 338.272,221.019 339.191,221.367 339.914 M295.975 339.255 C 298.077 342.711,296.066 350.079,292.977 350.241 C 292.550 350.263,291.635 350.308,290.944 350.341 C 288.907 350.437,288.026 351.475,287.693 354.172 C 287.402 356.528,287.385 356.553,285.200 357.851 C 281.582 359.999,280.227 359.861,275.673 356.879 L 274.745 356.272 278.014 352.986 C 281.111 349.873,281.378 349.698,283.083 349.664 C 286.465 349.596,287.200 348.849,287.200 345.482 C 287.200 343.932,287.426 343.589,290.469 340.531 C 294.060 336.921,294.494 336.820,295.975 339.255 M257.892 338.500 C 261.619 342.535,258.669 350.353,253.400 350.403 C 250.941 350.427,250.377 351.217,250.329 354.711 C 250.308 356.214,250.191 356.356,247.826 357.740 C 244.148 359.891,243.513 359.910,240.050 357.970 L 237.100 356.317 240.395 353.005 C 243.396 349.988,243.831 349.691,245.277 349.671 C 249.102 349.618,249.565 349.167,249.658 345.400 C 249.693 343.966,250.013 343.478,252.739 340.700 C 256.011 337.366,256.609 337.111,257.892 338.500 " stroke="none" fill="#848c8c" fill-rule="evenodd"></path><path id="path1" d="M313.514 10.391 C 311.597 10.796,309.167 11.412,308.114 11.762 C 306.390 12.334,296.810 12.407,211.800 12.499 L 117.400 12.600 115.800 13.652 C 114.911 14.236,113.869 15.392,113.456 16.252 C 113.047 17.103,112.584 18.070,112.428 18.400 C 111.923 19.469,106.746 21.891,104.400 22.155 C 101.412 22.492,101.148 22.555,100.000 23.204 C 99.450 23.515,98.865 23.732,98.700 23.685 C 98.535 23.638,98.438 23.735,98.485 23.900 C 98.532 24.065,98.327 24.639,98.030 25.176 C 97.734 25.712,97.354 27.401,97.186 28.929 C 96.757 32.839,95.337 34.284,91.600 34.612 C 88.858 34.853,85.589 36.416,85.352 37.600 C 85.286 37.930,85.050 38.920,84.829 39.800 C 83.929 43.381,84.280 206.050,85.194 208.491 C 86.177 211.119,88.264 213.222,91.234 214.578 L 93.468 215.598 97.234 214.963 C 99.305 214.614,102.309 213.894,103.908 213.364 L 106.817 212.400 206.777 212.400 L 306.738 212.400 308.459 211.087 C 309.405 210.365,310.687 209.053,311.307 208.171 L 312.435 206.566 312.526 124.983 L 312.618 43.400 313.518 40.600 C 314.013 39.060,314.685 36.286,315.011 34.435 C 315.795 29.988,316.694 28.816,320.411 27.396 C 329.461 23.937,330.226 14.775,321.800 10.748 C 319.031 9.424,318.257 9.391,313.514 10.391 M320.966 17.742 L 321.759 18.804 320.208 20.392 C 318.535 22.105,318.267 22.135,314.999 20.977 C 313.634 20.493,312.060 19.007,312.474 18.592 C 312.546 18.521,313.944 17.821,315.582 17.036 C 318.866 15.462,319.307 15.520,320.966 17.742 M88.100 19.076 C 88.485 19.176,89.115 19.176,89.500 19.076 C 89.885 18.975,89.570 18.893,88.800 18.893 C 88.030 18.893,87.715 18.975,88.100 19.076 M307.504 25.700 C 309.661 28.003,309.748 31.031,307.772 35.030 L 306.344 37.920 206.146 37.806 L 105.948 37.691 105.033 36.831 C 101.145 33.178,103.264 28.546,109.240 27.634 C 111.088 27.352,113.950 26.621,115.600 26.010 L 118.600 24.899 212.630 24.849 L 306.661 24.800 307.504 25.700 M81.246 30.073 C 81.210 30.922,80.970 31.182,80.100 31.313 L 79.000 31.480 80.113 31.540 C 81.296 31.604,81.796 30.940,81.480 29.723 C 81.355 29.239,81.277 29.354,81.246 30.073 M68.893 38.800 C 68.893 39.570,68.975 39.885,69.076 39.500 C 69.176 39.115,69.176 38.485,69.076 38.100 C 68.975 37.715,68.893 38.030,68.893 38.800 M98.987 42.217 L 100.400 43.295 100.400 124.820 L 100.400 206.345 97.546 207.772 C 94.059 209.517,93.773 209.525,92.119 207.922 L 90.800 206.643 90.800 124.891 L 90.800 43.138 92.023 41.916 C 93.604 40.335,96.694 40.469,98.987 42.217 M296.952 51.973 C 297.585 52.538,298.620 53.702,299.252 54.560 L 300.400 56.120 300.400 124.879 L 300.400 193.638 299.031 195.779 C 298.278 196.956,296.850 198.477,295.859 199.160 L 294.056 200.400 206.528 200.399 L 119.000 200.397 117.600 199.558 C 112.179 196.308,111.416 193.598,115.400 191.740 L 117.400 190.808 199.285 190.804 L 281.170 190.800 283.418 189.959 C 286.351 188.862,288.110 187.271,289.484 184.473 L 290.600 182.200 290.800 118.200 C 291.019 47.983,290.815 54.014,293.096 50.515 C 293.747 49.516,294.528 49.811,296.952 51.973 M281.905 50.900 C 284.578 53.747,284.381 48.408,284.391 118.383 L 284.400 181.366 282.919 182.883 L 281.438 184.400 199.619 184.391 C 107.157 184.381,116.223 184.706,112.666 181.278 C 108.064 176.844,108.256 179.398,108.098 120.400 C 107.939 61.194,107.915 61.592,112.012 56.926 C 112.665 56.181,113.200 55.412,113.200 55.217 C 113.200 54.614,115.289 52.340,116.946 51.140 L 118.520 50.000 199.790 50.000 L 281.061 50.000 281.905 50.900 M166.000 102.954 C 164.790 103.460,162.855 104.355,161.700 104.944 L 159.600 106.013 159.600 118.743 L 159.600 131.473 161.558 132.539 C 170.023 137.146,179.673 135.161,177.167 129.328 C 176.030 126.679,174.289 119.296,174.554 118.242 C 174.869 116.984,177.514 114.037,179.403 112.837 C 181.025 111.808,181.080 111.802,186.819 112.055 C 205.926 112.898,207.785 112.609,209.592 108.526 C 210.598 106.250,210.444 105.711,208.194 103.637 L 206.418 102.000 187.309 102.017 C 168.292 102.034,168.189 102.038,166.000 102.954 M206.969 105.566 C 207.627 106.293,207.627 106.387,206.959 107.407 L 206.255 108.481 192.628 108.350 C 171.218 108.144,169.099 110.033,171.333 127.332 L 171.841 131.265 170.321 132.041 C 168.810 132.811,168.790 132.811,167.200 132.000 L 165.600 131.184 165.600 118.635 L 165.600 106.086 167.100 105.463 C 169.650 104.406,206.004 104.500,206.969 105.566 M191.200 126.178 C 189.990 126.678,187.965 128.031,186.700 129.185 L 184.400 131.282 184.400 143.832 L 184.400 156.382 188.300 158.291 L 192.200 160.200 211.969 160.311 L 231.739 160.422 233.669 158.366 L 235.600 156.309 235.600 143.933 C 235.600 130.199,235.529 129.770,232.751 126.605 L 231.517 125.200 212.459 125.235 C 193.593 125.269,193.378 125.279,191.200 126.178 M232.114 130.362 C 233.136 132.092,233.158 155.742,232.138 156.869 C 231.232 157.870,194.554 158.009,192.187 157.020 L 190.800 156.441 190.805 143.720 L 190.810 131.000 192.105 130.125 C 193.391 129.256,193.537 129.250,212.414 129.225 L 231.428 129.200 232.114 130.362 M380.893 201.200 C 380.893 201.970,380.975 202.285,381.076 201.900 C 381.176 201.515,381.176 200.885,381.076 200.500 C 380.975 200.115,380.893 200.430,380.893 201.200 M366.453 214.007 C 363.763 215.956,362.400 218.452,362.400 221.429 C 362.400 224.574,362.749 224.872,366.253 224.719 L 368.977 224.600 369.822 221.619 C 370.705 218.499,370.616 216.373,369.506 214.096 C 368.791 212.631,368.370 212.619,366.453 214.007 M361.640 224.724 C 361.609 225.130,360.985 225.188,358.888 224.981 C 353.862 224.486,349.794 228.784,350.083 234.285 C 350.290 238.239,349.929 237.902,353.666 237.626 C 359.128 237.223,362.394 233.978,362.347 229.000 C 362.324 226.609,361.757 223.181,361.640 224.724 M57.721 231.498 C 59.877 231.571,63.297 231.570,65.321 231.498 C 67.344 231.425,65.580 231.366,61.400 231.367 C 57.220 231.367,55.564 231.426,57.721 231.498 M349.059 237.104 C 348.864 237.420,347.766 237.600,346.036 237.600 C 342.302 237.600,339.636 239.553,337.439 243.896 C 337.055 244.656,336.101 245.540,335.134 246.034 L 333.484 246.875 194.842 246.851 C 54.178 246.826,52.693 246.841,49.912 248.255 C 46.927 249.773,46.837 250.905,46.824 287.102 C 46.811 323.030,46.636 321.174,50.400 324.850 C 53.259 327.643,55.371 328.220,59.883 327.442 C 64.362 326.669,68.553 325.380,69.227 324.568 C 70.093 323.524,73.225 322.139,76.279 321.450 C 85.088 319.461,89.316 322.944,89.328 332.200 C 89.336 338.065,88.701 338.836,83.400 339.404 C 79.550 339.816,77.200 341.752,77.200 344.513 C 77.200 347.459,79.168 351.995,80.701 352.584 C 81.404 352.853,89.905 344.488,90.803 342.643 C 91.134 341.962,91.962 341.134,92.643 340.803 C 94.827 339.740,102.914 331.311,103.676 329.303 C 105.634 324.144,109.621 321.613,116.841 320.942 C 123.340 320.338,126.934 324.380,126.838 332.186 C 126.765 338.153,126.205 338.895,121.415 339.366 C 118.217 339.680,116.432 340.607,115.208 342.587 C 113.865 344.761,115.637 351.030,118.011 352.504 C 118.751 352.964,127.583 344.372,128.401 342.398 C 128.698 341.681,129.298 341.090,129.876 340.945 C 131.732 340.479,140.381 331.282,141.297 328.800 C 142.775 324.796,145.809 322.557,151.283 321.433 C 160.417 319.558,164.877 323.580,164.317 333.190 C 164.021 338.274,163.416 338.892,158.200 339.446 C 155.612 339.721,154.129 340.533,152.796 342.405 C 151.460 344.282,152.480 349.096,154.765 351.699 L 155.983 353.086 160.792 348.278 C 163.436 345.633,165.600 343.245,165.600 342.970 C 165.600 342.468,167.812 340.400,168.350 340.400 C 169.320 340.400,178.026 330.908,178.796 329.011 C 180.863 323.918,186.448 320.800,193.505 320.800 C 198.906 320.800,202.689 326.677,201.855 333.773 C 201.311 338.401,200.793 338.868,195.600 339.422 C 192.636 339.738,189.600 342.087,189.600 344.063 C 189.600 346.896,191.405 351.436,192.902 352.371 C 193.844 352.959,202.352 344.970,203.399 342.514 C 203.727 341.745,204.332 341.132,204.906 340.988 C 206.582 340.567,215.399 331.288,216.211 329.090 C 217.733 324.969,220.967 322.557,226.483 321.430 C 235.339 319.620,239.430 323.112,239.346 332.413 C 239.296 338.091,238.658 338.841,233.400 339.404 C 229.550 339.816,227.200 341.752,227.200 344.513 C 227.200 347.476,229.169 351.995,230.718 352.590 C 231.447 352.870,239.903 344.547,240.803 342.666 C 241.134 341.972,241.970 341.134,242.661 340.803 C 244.140 340.094,253.182 331.236,253.193 330.487 C 253.228 327.992,257.091 323.597,260.308 322.394 C 270.956 318.410,277.074 322.186,276.846 332.600 C 276.725 338.156,276.121 338.905,271.400 339.364 C 268.210 339.674,266.006 340.855,265.005 342.791 C 263.911 344.906,265.845 351.170,268.000 352.493 C 268.736 352.945,277.587 344.362,278.394 342.416 C 278.694 341.691,279.294 341.091,279.861 340.949 C 281.483 340.542,290.570 331.144,291.121 329.305 C 293.469 321.470,307.967 317.775,312.329 323.900 C 314.352 326.741,315.060 333.907,313.629 337.058 C 312.821 338.839,313.006 338.764,307.800 339.437 C 301.738 340.221,300.264 347.669,305.261 352.263 C 307.896 354.685,315.600 347.930,315.600 343.198 C 315.600 341.964,316.532 340.979,318.060 340.598 C 320.533 339.981,322.126 337.165,322.836 332.155 C 324.025 323.761,325.466 321.878,331.684 320.593 C 335.620 319.780,336.800 319.252,337.234 318.111 C 337.441 317.566,337.600 306.587,337.600 292.837 C 337.600 269.344,337.628 268.446,338.422 266.163 C 338.874 264.863,339.676 261.190,340.206 258.000 C 341.273 251.566,340.954 252.117,345.588 248.697 C 348.880 246.268,350.006 244.354,349.960 241.269 C 349.914 238.169,349.522 236.356,349.059 237.104 M333.053 254.628 C 334.689 256.364,334.702 255.968,332.893 259.600 L 331.400 262.600 199.743 262.701 L 68.085 262.801 66.026 264.653 C 62.563 267.766,62.800 265.630,62.800 293.742 L 62.800 318.724 60.996 319.781 C 57.135 322.044,56.292 322.133,54.647 320.449 L 53.200 318.966 53.200 287.402 L 53.200 255.838 54.478 254.519 L 55.757 253.200 193.731 253.200 L 331.706 253.200 333.053 254.628 M31.298 292.473 L 31.200 331.147 30.100 331.313 L 29.000 331.480 30.113 331.540 C 31.700 331.626,31.616 334.018,31.501 292.200 L 31.396 253.800 31.298 292.473 M307.451 275.645 C 316.070 280.879,319.565 296.089,313.397 301.519 C 310.587 303.992,309.844 304.101,293.800 304.398 C 276.701 304.714,276.205 304.805,273.743 308.100 C 271.346 311.308,269.223 312.639,267.733 311.869 C 266.498 311.230,263.588 308.273,262.865 306.922 C 261.584 304.527,259.642 304.397,225.082 304.399 C 189.336 304.400,189.926 304.444,186.603 301.519 C 182.455 297.867,182.323 287.991,186.354 282.800 C 186.952 282.030,187.825 280.770,188.294 280.000 C 189.205 278.506,191.164 276.554,192.800 275.510 C 194.495 274.430,305.665 274.561,307.451 275.645 M108.556 285.218 C 113.966 287.242,115.600 290.698,115.600 300.115 C 115.599 307.500,114.838 310.079,111.895 312.663 C 106.796 317.140,91.895 316.827,87.525 312.150 C 82.823 307.118,83.050 292.027,87.895 287.478 C 91.198 284.377,102.890 283.098,108.556 285.218 M95.840 328.200 C 97.103 330.852,97.062 331.181,95.257 332.944 L 93.715 334.450 93.011 332.967 C 92.274 331.413,92.335 329.611,93.240 326.251 C 93.755 324.338,94.138 324.625,95.840 328.200 M133.824 329.273 L 134.472 331.222 132.859 332.835 L 131.246 334.448 130.572 333.146 C 129.820 331.692,129.964 327.795,130.840 325.871 L 131.323 324.812 132.250 326.068 C 132.760 326.759,133.468 328.201,133.824 329.273 M208.260 327.800 C 209.528 330.521,209.449 331.194,207.655 332.947 L 206.109 334.456 205.431 332.760 C 204.734 331.018,204.799 329.435,205.696 326.303 C 206.228 324.446,206.871 324.822,208.260 327.800 M246.283 329.116 L 246.956 331.232 245.339 332.849 L 243.722 334.466 243.017 332.979 C 242.269 331.404,242.362 328.859,243.271 326.023 L 243.713 324.646 244.661 325.823 C 245.182 326.470,245.912 327.952,246.283 329.116 M283.824 329.273 L 284.472 331.222 282.859 332.835 L 281.246 334.448 280.572 333.146 C 279.820 331.692,279.964 327.795,280.840 325.871 L 281.323 324.812 282.250 326.068 C 282.760 326.759,283.468 328.201,283.824 329.273 M170.326 327.122 C 172.137 330.376,172.127 330.909,170.215 332.786 L 168.510 334.458 167.894 332.918 C 167.274 331.369,167.297 330.620,168.070 327.081 C 168.564 324.820,169.049 324.829,170.326 327.122 M319.622 327.451 C 320.171 329.821,320.069 331.907,319.333 333.320 L 318.667 334.600 317.961 333.011 C 317.252 331.413,317.264 330.798,318.075 327.068 C 318.549 324.890,319.057 325.016,319.622 327.451 M40.600 334.771 C 36.460 335.305,35.098 336.844,34.666 341.474 C 34.295 345.448,32.483 347.199,28.740 347.201 C 24.929 347.202,23.054 349.101,22.240 353.783 C 21.637 357.248,19.903 359.582,17.906 359.615 C 14.248 359.676,11.859 360.691,10.698 362.678 C 8.962 365.651,9.729 375.245,12.076 379.914 C 13.786 383.316,-0.944 382.987,154.970 383.103 L 293.740 383.206 296.970 382.203 C 300.106 381.229,300.299 381.095,303.600 377.581 C 305.470 375.591,307.900 373.008,309.000 371.842 C 310.100 370.676,311.352 369.532,311.783 369.299 C 312.783 368.758,311.800 366.632,309.685 364.761 C 305.653 361.195,294.955 358.560,292.335 360.488 C 288.386 363.393,282.399 364.829,278.282 363.858 C 275.242 363.142,269.924 360.849,269.424 360.038 C 268.872 359.146,256.504 359.472,255.181 360.413 C 248.691 365.035,240.486 365.250,233.403 360.985 L 231.103 359.600 225.000 359.600 L 218.897 359.600 216.597 360.985 C 209.514 365.250,201.309 365.035,194.819 360.413 C 193.496 359.472,181.128 359.146,180.576 360.038 C 180.076 360.849,174.758 363.142,171.718 363.858 C 167.663 364.814,159.257 362.679,157.168 360.161 C 156.251 359.056,143.843 359.379,142.273 360.549 C 138.607 363.281,132.392 364.745,128.312 363.838 C 125.327 363.174,119.938 360.870,119.424 360.038 C 118.870 359.142,106.272 359.471,105.074 360.413 C 99.244 364.999,90.455 365.231,83.403 360.985 L 81.103 359.600 75.000 359.600 L 68.897 359.600 66.548 361.015 C 58.543 365.837,49.725 364.947,42.901 358.629 C 39.924 355.873,39.521 356.766,47.016 349.521 C 53.631 343.126,53.420 343.546,51.697 340.200 C 50.590 338.050,49.042 336.656,46.400 335.429 C 44.116 334.369,43.902 334.344,40.600 334.771 M18.893 338.800 C 18.893 339.570,18.975 339.885,19.076 339.500 C 19.176 339.115,19.176 338.485,19.076 338.100 C 18.975 337.715,18.893 338.030,18.893 338.800 M45.608 342.208 L 46.972 343.616 45.315 345.273 C 43.671 346.917,43.650 346.925,42.611 346.244 C 40.645 344.956,40.471 343.778,42.010 342.190 C 43.683 340.464,43.918 340.465,45.608 342.208 M83.085 343.010 L 84.544 343.619 82.977 345.224 C 81.524 346.712,81.372 346.776,80.888 346.114 C 79.004 343.539,80.224 341.814,83.085 343.010 M120.640 343.046 L 122.002 343.692 120.367 345.279 C 119.468 346.151,118.664 346.797,118.581 346.714 C 116.269 344.402,117.790 341.693,120.640 343.046 M158.067 343.035 L 159.295 343.669 157.759 345.242 L 156.224 346.814 155.484 345.370 C 154.289 343.042,155.669 341.795,158.067 343.035 M195.667 343.035 L 196.895 343.669 195.382 345.218 C 193.671 346.971,193.444 346.950,192.793 344.979 C 192.015 342.623,193.252 341.786,195.667 343.035 M233.656 343.354 C 234.326 343.823,234.266 343.968,232.823 345.377 L 231.269 346.895 230.635 345.667 C 229.186 342.866,230.989 341.486,233.656 343.354 M270.640 343.046 L 272.002 343.692 270.367 345.279 C 269.468 346.151,268.664 346.797,268.581 346.714 C 266.269 344.402,267.790 341.693,270.640 343.046 M307.813 342.980 C 308.576 343.298,309.200 343.713,309.200 343.901 C 309.200 344.336,306.465 347.004,306.257 346.773 C 305.159 345.550,304.779 343.886,305.433 343.164 C 306.259 342.251,306.098 342.263,307.813 342.980 M32.743 354.213 C 33.405 354.770,34.163 355.895,34.427 356.713 C 36.295 362.490,38.683 364.470,45.738 366.096 C 50.595 367.215,61.434 367.313,66.000 366.280 C 70.108 365.350,79.863 365.346,84.000 366.272 C 88.157 367.203,99.431 367.200,103.526 366.267 C 107.576 365.344,117.493 365.350,121.600 366.278 C 125.682 367.201,136.506 367.192,141.000 366.262 C 145.332 365.366,154.676 365.367,159.000 366.264 C 163.449 367.187,174.285 367.191,178.400 366.271 C 182.496 365.356,192.223 365.354,196.600 366.268 C 201.159 367.220,211.448 367.216,216.024 366.260 C 220.286 365.369,230.432 365.523,236.800 366.576 C 241.638 367.375,249.108 367.211,253.800 366.202 C 257.770 365.348,267.675 365.391,271.600 366.280 C 275.688 367.205,286.985 367.212,291.098 366.292 L 293.996 365.644 296.998 367.012 C 300.651 368.677,300.658 368.321,296.909 372.091 L 293.819 375.200 156.172 375.200 L 18.526 375.200 17.011 371.971 L 15.495 368.741 16.962 367.239 C 17.919 366.259,19.199 365.494,20.647 365.038 C 24.186 363.922,27.980 359.625,27.996 356.713 C 28.000 356.007,30.546 353.200,31.183 353.200 C 31.378 353.200,32.080 353.656,32.743 354.213 " stroke="none" fill="#c4c5cc" fill-rule="evenodd"></path><path id="path2" d="M71.700 31.487 C 72.305 31.578,73.295 31.578,73.900 31.487 C 74.505 31.395,74.010 31.320,72.800 31.320 C 71.590 31.320,71.095 31.395,71.700 31.487 M68.972 32.568 C 68.839 33.101,68.814 33.866,68.918 34.268 C 69.048 34.769,69.122 34.662,69.154 33.929 C 69.179 33.339,69.483 32.574,69.829 32.229 C 70.393 31.664,70.394 31.600,69.836 31.600 C 69.495 31.600,69.106 32.036,68.972 32.568 M142.086 78.000 L 130.773 78.200 129.386 79.556 L 128.000 80.912 127.900 110.956 C 127.736 160.266,127.876 169.346,128.835 171.385 C 130.581 175.101,128.722 174.800,149.968 174.800 L 168.705 174.800 169.716 173.475 C 171.262 171.448,171.941 169.480,172.588 165.152 C 172.914 162.974,173.464 160.098,173.810 158.761 C 174.541 155.940,174.443 155.730,171.632 154.077 C 169.862 153.036,169.543 152.993,162.200 152.784 C 155.117 152.583,154.491 152.504,153.000 151.617 C 147.071 148.090,146.116 143.707,149.039 133.427 C 149.411 132.121,149.600 129.376,149.600 125.299 C 149.600 119.174,149.606 119.136,150.750 117.472 C 154.133 112.555,154.762 102.546,152.145 95.294 C 151.485 93.466,151.493 93.431,153.931 87.457 C 155.064 84.680,153.028 84.854,187.407 84.586 L 218.600 84.342 221.600 85.871 C 226.797 88.520,228.000 91.192,228.000 100.087 C 228.000 107.179,227.874 107.516,223.529 112.069 C 220.041 115.724,218.733 116.268,217.337 114.645 C 216.828 114.053,215.659 113.303,214.740 112.979 C 213.822 112.655,212.138 111.885,210.999 111.268 L 208.929 110.147 207.580 111.273 L 206.230 112.400 199.415 112.355 C 195.667 112.330,189.998 112.195,186.819 112.055 C 180.419 111.773,179.448 112.062,176.761 115.046 C 173.309 118.881,173.544 119.381,179.184 120.212 C 181.009 120.480,181.801 120.966,184.600 123.533 C 185.480 124.340,186.837 125.476,187.617 126.057 L 189.033 127.113 191.384 126.157 L 193.736 125.200 212.542 125.200 C 231.223 125.200,231.355 125.206,232.262 126.058 L 233.176 126.916 233.630 125.758 C 235.408 121.226,235.618 120.283,235.001 119.602 C 234.190 118.705,234.191 118.699,235.900 116.649 C 236.725 115.659,237.875 114.144,238.455 113.283 C 239.117 112.300,240.287 111.329,241.597 110.676 L 243.685 109.636 245.666 110.388 C 248.558 111.487,250.049 112.803,251.400 115.450 L 252.600 117.800 252.800 143.800 L 253.000 169.800 254.173 171.849 C 255.918 174.900,255.990 174.922,263.065 174.591 C 270.115 174.260,271.346 173.742,273.401 170.234 L 274.456 168.434 274.528 124.779 L 274.600 81.124 273.400 80.128 C 270.550 77.762,274.642 77.913,211.402 77.854 C 179.501 77.824,148.309 77.890,142.086 78.000 M183.962 118.645 C 184.306 118.754,183.934 119.124,183.003 119.598 C 181.355 120.439,180.800 120.349,180.800 119.243 C 180.800 117.995,181.493 117.863,183.962 118.645 M93.000 284.790 C 92.560 284.974,91.603 285.349,90.873 285.622 C 86.680 287.193,84.891 291.316,84.581 300.119 C 84.159 312.134,87.540 315.599,99.685 315.600 C 108.927 315.600,112.189 314.102,114.589 308.752 L 115.692 306.294 115.421 299.448 C 115.051 290.110,113.590 287.101,108.501 285.197 C 106.224 284.345,94.777 284.044,93.000 284.790 " stroke="none" fill="#54acac" fill-rule="evenodd"></path><path id="path3" d="M315.582 17.036 C 313.944 17.821,312.546 18.521,312.474 18.592 C 312.060 19.007,313.634 20.493,314.999 20.977 C 318.267 22.135,318.535 22.105,320.208 20.392 L 321.759 18.804 320.966 17.742 C 319.307 15.520,318.866 15.462,315.582 17.036 M115.600 26.010 C 113.950 26.621,111.088 27.352,109.240 27.634 C 103.264 28.546,101.145 33.178,105.033 36.831 L 105.948 37.691 206.146 37.806 L 306.344 37.920 307.772 35.030 C 309.748 31.031,309.661 28.003,307.504 25.700 L 306.661 24.800 212.630 24.849 L 118.600 24.899 115.600 26.010 M92.023 41.916 L 90.800 43.138 90.800 124.891 L 90.800 206.643 92.119 207.922 C 93.773 209.525,94.059 209.517,97.546 207.772 L 100.400 206.345 100.400 124.820 L 100.400 43.295 98.987 42.217 C 96.694 40.469,93.604 40.335,92.023 41.916 M293.096 50.515 C 290.815 54.014,291.019 47.983,290.800 118.200 L 290.600 182.200 289.484 184.473 C 288.110 187.271,286.351 188.862,283.418 189.959 L 281.170 190.800 199.285 190.804 L 117.400 190.808 115.400 191.740 C 111.416 193.598,112.179 196.308,117.600 199.558 L 119.000 200.397 206.528 200.399 L 294.056 200.400 295.859 199.160 C 296.850 198.477,298.278 196.956,299.031 195.779 L 300.400 193.638 300.400 124.879 L 300.400 56.120 299.252 54.560 C 296.653 51.030,293.927 49.239,293.096 50.515 M167.100 105.463 L 165.600 106.086 165.600 118.635 L 165.600 131.184 167.200 132.000 C 168.790 132.811,168.810 132.811,170.321 132.041 L 171.841 131.265 171.333 127.332 C 169.099 110.033,171.218 108.144,192.628 108.350 L 206.255 108.481 206.959 107.407 C 207.627 106.387,207.627 106.293,206.969 105.566 C 206.004 104.500,169.650 104.406,167.100 105.463 M192.105 130.125 L 190.810 131.000 190.805 143.720 L 190.800 156.441 192.187 157.020 C 194.554 158.009,231.232 157.870,232.138 156.869 C 233.158 155.742,233.136 132.092,232.114 130.362 L 231.428 129.200 212.414 129.225 C 193.537 129.250,193.391 129.256,192.105 130.125 M54.478 254.519 L 53.200 255.838 53.200 287.402 L 53.200 318.966 54.647 320.449 C 56.292 322.133,57.135 322.044,60.996 319.781 L 62.800 318.724 62.800 293.742 C 62.800 265.630,62.563 267.766,66.026 264.653 L 68.085 262.801 199.743 262.701 L 331.400 262.600 332.893 259.600 C 334.702 255.968,334.689 256.364,333.053 254.628 L 331.706 253.200 193.731 253.200 L 55.757 253.200 54.478 254.519 M93.240 326.251 C 92.335 329.611,92.274 331.413,93.011 332.967 L 93.715 334.450 95.257 332.944 C 97.062 331.181,97.103 330.852,95.840 328.200 C 94.138 324.625,93.755 324.338,93.240 326.251 M130.840 325.871 C 129.964 327.795,129.820 331.692,130.572 333.146 L 131.246 334.448 132.859 332.835 L 134.472 331.222 133.824 329.273 C 133.468 328.201,132.760 326.759,132.250 326.068 L 131.323 324.812 130.840 325.871 M205.696 326.303 C 204.799 329.435,204.734 331.018,205.431 332.760 L 206.109 334.456 207.655 332.947 C 209.449 331.194,209.528 330.521,208.260 327.800 C 206.871 324.822,206.228 324.446,205.696 326.303 M243.271 326.023 C 242.362 328.859,242.269 331.404,243.017 332.979 L 243.722 334.466 245.339 332.849 L 246.956 331.232 246.283 329.116 C 245.912 327.952,245.182 326.470,244.661 325.823 L 243.713 324.646 243.271 326.023 M280.840 325.871 C 279.964 327.795,279.820 331.692,280.572 333.146 L 281.246 334.448 282.859 332.835 L 284.472 331.222 283.824 329.273 C 283.468 328.201,282.760 326.759,282.250 326.068 L 281.323 324.812 280.840 325.871 M168.070 327.081 C 167.297 330.620,167.274 331.369,167.894 332.918 L 168.510 334.458 170.215 332.786 C 172.127 330.909,172.137 330.376,170.326 327.122 C 169.049 324.829,168.564 324.820,168.070 327.081 M318.075 327.068 C 317.264 330.798,317.252 331.413,317.961 333.011 L 318.667 334.600 319.333 333.320 C 320.069 331.907,320.171 329.821,319.622 327.451 C 319.057 325.016,318.549 324.890,318.075 327.068 M42.010 342.190 C 40.471 343.778,40.645 344.956,42.611 346.244 C 43.650 346.925,43.671 346.917,45.315 345.273 L 46.972 343.616 45.608 342.208 C 43.918 340.465,43.683 340.464,42.010 342.190 M80.404 342.995 C 79.863 343.647,80.073 345.000,80.888 346.114 C 81.372 346.776,81.524 346.712,82.977 345.224 L 84.544 343.619 83.085 343.010 C 81.276 342.254,81.021 342.252,80.404 342.995 M117.894 343.100 C 117.313 343.745,117.713 345.846,118.581 346.714 C 118.664 346.797,119.468 346.151,120.367 345.279 L 122.002 343.692 120.640 343.046 C 118.928 342.233,118.669 342.239,117.894 343.100 M155.433 343.163 C 154.779 343.886,154.781 344.001,155.484 345.370 L 156.224 346.814 157.759 345.242 L 159.295 343.669 158.067 343.035 C 156.503 342.226,156.272 342.237,155.433 343.163 M192.813 342.985 C 192.439 343.435,192.434 343.891,192.793 344.979 C 193.444 346.950,193.671 346.971,195.382 345.218 L 196.895 343.669 195.667 343.035 C 194.143 342.246,193.436 342.234,192.813 342.985 M230.499 342.861 C 229.838 343.522,229.870 344.188,230.635 345.667 L 231.269 346.895 232.823 345.377 C 234.266 343.968,234.326 343.823,233.656 343.354 C 232.499 342.544,231.043 342.317,230.499 342.861 M267.894 343.100 C 267.313 343.745,267.713 345.846,268.581 346.714 C 268.664 346.797,269.468 346.151,270.367 345.279 L 272.002 343.692 270.640 343.046 C 268.928 342.233,268.669 342.239,267.894 343.100 M305.433 343.164 C 304.779 343.886,305.159 345.550,306.257 346.773 C 306.465 347.004,309.200 344.336,309.200 343.901 C 309.200 343.622,306.818 342.400,306.275 342.400 C 306.192 342.400,305.813 342.744,305.433 343.164 M29.413 354.613 C 28.636 355.391,27.998 356.336,27.996 356.713 C 27.980 359.625,24.186 363.922,20.647 365.038 C 19.199 365.494,17.919 366.259,16.962 367.239 L 15.495 368.741 17.011 371.971 L 18.526 375.200 156.172 375.200 L 293.819 375.200 296.909 372.091 C 300.658 368.321,300.651 368.677,296.998 367.012 L 293.996 365.644 291.098 366.292 C 286.985 367.212,275.688 367.205,271.600 366.280 C 267.675 365.391,257.770 365.348,253.800 366.202 C 249.108 367.211,241.638 367.375,236.800 366.576 C 230.432 365.523,220.286 365.369,216.024 366.260 C 211.448 367.216,201.159 367.220,196.600 366.268 C 192.223 365.354,182.496 365.356,178.400 366.271 C 174.285 367.191,163.449 367.187,159.000 366.264 C 154.676 365.367,145.332 365.366,141.000 366.262 C 136.506 367.192,125.682 367.201,121.600 366.278 C 117.493 365.350,107.576 365.344,103.526 366.267 C 99.431 367.200,88.157 367.203,84.000 366.272 C 79.863 365.346,70.108 365.350,66.000 366.280 C 61.434 367.313,50.595 367.215,45.738 366.096 C 38.683 364.470,36.295 362.490,34.427 356.713 C 33.387 353.497,31.373 352.653,29.413 354.613 " stroke="none" fill="#fcfcfc" fill-rule="evenodd"></path><path id="path4" d="M94.500 6.665 C 94.225 6.776,94.013 7.257,94.028 7.733 C 94.055 8.560,94.071 8.563,94.365 7.809 C 94.535 7.374,95.107 6.897,95.637 6.749 C 96.415 6.532,96.446 6.478,95.800 6.471 C 95.360 6.467,94.775 6.554,94.500 6.665 M342.523 7.615 C 340.983 9.344,339.299 12.539,338.171 15.871 L 337.200 18.741 337.200 114.144 C 337.200 171.888,337.053 209.934,336.829 210.525 C 336.403 211.644,334.607 212.400,332.371 212.400 C 329.089 212.400,325.055 216.816,324.693 220.805 C 324.556 222.317,324.210 223.561,323.819 223.953 C 323.225 224.546,312.564 224.609,195.986 224.702 L 68.800 224.805 68.800 228.168 L 68.800 231.532 70.700 232.916 C 73.013 234.600,75.447 235.853,78.343 236.849 C 80.458 237.577,84.180 237.600,199.832 237.600 L 319.138 237.600 320.857 236.288 C 324.023 233.874,325.200 231.907,325.200 229.031 C 325.200 225.761,325.771 225.200,329.100 225.200 C 332.930 225.200,337.600 221.040,337.600 217.629 C 337.600 214.051,338.790 212.800,342.195 212.800 C 345.589 212.800,349.244 208.952,350.998 203.531 C 352.228 199.733,352.785 198.531,354.536 195.901 L 355.800 194.002 365.400 193.909 L 375.000 193.815 365.711 193.700 L 356.423 193.585 356.311 100.378 C 356.213 18.043,356.130 7.127,355.600 6.791 C 355.270 6.583,352.436 6.409,349.303 6.406 L 343.606 6.400 342.523 7.615 M93.740 15.600 C 93.740 17.470,93.809 18.235,93.893 17.300 C 93.977 16.365,93.977 14.835,93.893 13.900 C 93.809 12.965,93.740 13.730,93.740 15.600 M82.100 19.065 C 81.825 19.176,81.603 19.567,81.606 19.933 C 81.611 20.457,81.685 20.484,81.954 20.060 C 82.143 19.763,82.905 19.377,83.648 19.201 L 85.000 18.882 83.800 18.873 C 83.140 18.867,82.375 18.954,82.100 19.065 M81.320 22.800 C 81.320 24.010,81.395 24.505,81.487 23.900 C 81.578 23.295,81.578 22.305,81.487 21.700 C 81.395 21.095,81.320 21.590,81.320 22.800 M117.284 63.900 C 116.634 64.725,115.719 66.030,115.252 66.800 L 114.403 68.200 114.405 118.600 L 114.408 169.000 115.579 171.000 C 116.223 172.100,117.182 173.524,117.709 174.165 L 118.668 175.329 120.571 174.020 C 121.618 173.300,122.998 171.885,123.637 170.877 L 124.800 169.043 124.800 125.108 C 124.800 84.636,124.853 81.086,125.473 80.086 C 126.537 78.369,128.076 76.789,129.692 75.755 L 131.184 74.800 200.114 74.800 L 269.043 74.800 270.877 73.637 C 271.885 72.998,273.282 71.643,273.981 70.627 L 275.253 68.779 274.453 67.490 C 273.594 66.105,271.614 64.131,270.011 63.060 C 269.100 62.452,263.054 62.400,193.745 62.400 L 118.467 62.400 117.284 63.900 M154.677 88.786 C 152.176 90.982,151.303 93.211,152.182 95.159 C 153.352 97.754,155.773 100.159,156.885 99.832 C 157.388 99.684,159.510 99.082,161.600 98.494 L 165.400 97.425 186.021 97.293 C 205.741 97.166,206.721 97.195,208.462 97.941 C 212.533 99.686,215.001 103.288,215.445 108.133 C 216.086 115.114,218.216 117.093,221.751 113.989 C 224.192 111.846,224.544 110.370,224.717 101.548 L 224.871 93.696 223.831 92.049 C 223.259 91.142,221.938 89.775,220.895 89.010 L 219.000 87.620 187.514 87.610 L 156.028 87.600 154.677 88.786 M241.163 113.556 C 235.638 115.718,233.733 118.165,235.798 120.450 C 239.685 124.753,240.387 128.350,240.394 144.000 L 240.399 156.600 239.256 159.017 C 236.369 165.120,236.018 165.200,212.267 165.200 C 191.444 165.200,189.568 165.068,183.681 163.183 C 180.990 162.322,180.986 162.323,178.695 164.105 C 174.330 167.499,174.888 171.792,180.034 174.418 C 182.230 175.538,243.145 175.652,244.811 174.540 C 250.263 170.899,250.000 172.462,250.000 143.694 L 250.000 118.957 248.819 117.095 C 246.472 113.393,244.229 112.357,241.163 113.556 M181.059 118.274 C 180.686 118.648,180.740 119.916,181.141 120.163 C 181.328 120.279,182.166 120.025,183.003 119.598 C 183.934 119.124,184.306 118.754,183.962 118.645 C 182.546 118.196,181.296 118.037,181.059 118.274 M154.800 138.246 C 149.378 141.959,149.254 144.807,154.343 148.688 L 156.062 150.000 162.247 150.000 C 169.842 150.000,172.408 148.869,174.752 144.491 C 175.609 142.888,171.931 140.815,166.800 140.010 C 163.671 139.518,157.836 138.105,156.800 137.587 C 156.428 137.401,155.669 137.651,154.800 138.246 M379.886 194.605 C 380.378 194.950,380.819 195.768,380.911 196.505 L 381.072 197.800 381.136 196.380 C 381.203 194.883,380.645 194.000,379.631 194.000 C 379.198 194.000,379.272 194.175,379.886 194.605 M380.153 207.500 C 378.182 210.433,377.649 212.449,376.415 221.641 C 375.983 224.853,375.448 228.273,375.225 229.241 C 374.964 230.371,374.816 246.743,374.810 275.051 C 374.799 323.045,374.913 320.646,372.533 322.848 C 371.910 323.424,370.500 324.226,369.400 324.631 C 366.714 325.620,363.193 329.122,362.194 331.800 C 360.306 336.856,359.440 337.200,348.593 337.200 C 338.218 337.200,337.600 336.929,337.600 332.382 C 337.600 330.484,333.441 326.800,331.298 326.800 C 329.404 326.800,327.620 331.770,328.714 334.000 C 330.186 337.004,330.795 337.600,332.386 337.600 C 336.930 337.600,337.200 338.218,337.200 348.618 C 337.200 359.469,336.861 360.322,331.800 362.199 C 328.984 363.243,325.548 366.745,324.631 369.506 C 323.780 372.069,322.110 373.817,319.879 374.479 C 317.655 375.139,312.728 379.983,312.000 382.225 C 310.857 385.747,309.013 386.862,302.000 388.277 C 298.840 388.915,288.631 388.979,157.400 389.192 C 21.768 389.412,16.090 389.451,13.400 390.160 C 7.331 391.762,6.400 392.649,6.400 396.829 L 6.400 400.000 162.600 400.000 L 318.800 400.000 318.800 396.800 L 318.800 393.600 324.586 393.600 C 331.616 393.600,331.200 394.039,331.200 386.626 L 331.200 381.200 336.626 381.200 C 344.039 381.200,343.600 381.616,343.600 374.586 L 343.600 368.800 348.700 368.760 C 356.378 368.700,355.734 369.255,356.154 362.338 L 356.508 356.508 362.338 356.154 C 369.255 355.734,368.700 356.378,368.760 348.700 L 368.800 343.600 374.586 343.600 C 381.616 343.600,381.200 344.039,381.200 336.626 L 381.200 331.200 386.626 331.200 C 389.611 331.200,392.401 331.014,392.826 330.786 C 393.785 330.273,394.076 207.836,393.120 206.880 C 392.790 206.550,390.801 206.400,386.766 206.400 L 380.892 206.400 380.153 207.500 M46.900 231.487 C 47.505 231.578,48.495 231.578,49.100 231.487 C 49.705 231.395,49.210 231.320,48.000 231.320 C 46.790 231.320,46.295 231.395,46.900 231.487 M44.138 232.217 C 43.791 233.121,44.102 233.169,44.900 232.333 C 45.492 231.713,45.506 231.600,44.987 231.600 C 44.651 231.600,44.268 231.878,44.138 232.217 M43.678 240.483 L 43.600 243.566 40.500 243.703 L 37.400 243.839 40.513 243.920 C 44.146 244.013,44.098 244.067,43.898 240.160 L 43.757 237.400 43.678 240.483 M31.738 244.617 C 31.391 245.521,31.702 245.569,32.500 244.733 C 33.092 244.113,33.106 244.000,32.587 244.000 C 32.251 244.000,31.868 244.278,31.738 244.617 M31.320 248.000 C 31.320 249.210,31.395 249.705,31.487 249.100 C 31.578 248.495,31.578 247.505,31.487 246.900 C 31.395 246.295,31.320 246.790,31.320 248.000 M192.470 288.641 C 191.817 289.434,190.808 290.954,190.228 292.019 L 189.174 293.956 191.354 296.137 L 193.534 298.317 225.867 298.369 C 254.162 298.414,258.725 298.505,262.400 299.098 C 267.701 299.953,269.544 299.947,275.000 299.059 C 278.656 298.463,281.678 298.350,292.877 298.386 L 306.354 298.429 308.579 296.203 L 310.805 293.978 309.954 292.289 C 309.486 291.360,308.483 289.835,307.725 288.900 L 306.346 287.200 250.002 287.200 L 193.658 287.200 192.470 288.641 M79.200 327.832 C 73.904 330.841,74.019 333.434,79.494 334.457 C 82.087 334.941,85.168 332.272,84.193 330.386 C 82.408 326.934,81.552 326.496,79.200 327.832 M116.600 327.974 C 112.144 330.572,111.664 331.967,114.646 333.652 C 117.034 335.000,118.677 334.909,120.423 333.332 C 122.367 331.575,122.375 331.179,120.518 328.744 C 118.771 326.453,119.098 326.517,116.600 327.974 M154.009 328.032 C 148.902 330.824,148.962 333.282,154.164 334.398 C 158.844 335.402,160.863 331.273,157.333 327.918 L 156.194 326.836 154.009 328.032 M191.996 327.578 C 188.937 329.196,187.081 331.290,187.807 332.306 C 189.159 334.200,193.152 335.174,194.788 334.009 C 197.570 332.028,197.587 330.817,194.873 327.900 C 193.677 326.613,193.795 326.626,191.996 327.578 M229.200 327.832 C 223.904 330.841,224.019 333.434,229.494 334.457 C 232.087 334.941,235.168 332.272,234.193 330.386 C 232.408 326.934,231.552 326.496,229.200 327.832 M266.962 327.718 C 262.243 330.260,261.537 332.141,264.704 333.735 C 267.186 334.985,268.712 334.877,270.423 333.332 C 272.367 331.575,272.375 331.179,270.518 328.744 C 268.810 326.504,269.075 326.580,266.962 327.718 M304.362 327.738 C 298.953 330.981,298.885 333.266,304.164 334.398 C 308.776 335.387,310.773 331.586,307.474 328.100 C 306.053 326.599,306.227 326.620,304.362 327.738 M21.700 331.487 C 22.305 331.578,23.295 331.578,23.900 331.487 C 24.505 331.395,24.010 331.320,22.800 331.320 C 21.590 331.320,21.095 331.395,21.700 331.487 M18.972 332.568 C 18.839 333.101,18.814 333.866,18.918 334.268 C 19.048 334.769,19.122 334.662,19.154 333.929 C 19.179 333.339,19.483 332.574,19.829 332.229 C 20.393 331.664,20.394 331.600,19.836 331.600 C 19.495 331.600,19.106 332.036,18.972 332.568 M67.784 337.891 C 64.657 339.481,62.597 342.412,62.277 345.728 C 62.153 347.008,61.862 348.284,61.630 348.564 C 61.397 348.844,61.299 349.166,61.412 349.278 C 61.524 349.391,60.429 349.594,58.978 349.729 C 56.084 349.999,53.845 351.461,51.190 354.813 L 49.956 356.371 51.878 357.585 C 55.817 360.074,56.603 360.046,61.099 357.255 C 62.783 356.210,62.799 356.178,62.799 353.871 C 62.800 350.962,63.160 350.602,66.404 350.263 C 69.251 349.966,69.813 349.539,71.218 346.600 C 73.259 342.329,70.887 336.314,67.784 337.891 M102.917 340.523 C 100.014 343.477,99.693 343.958,99.658 345.400 C 99.565 349.167,99.102 349.618,95.277 349.671 C 93.831 349.691,93.396 349.988,90.395 353.005 L 87.100 356.317 90.050 357.970 C 93.513 359.910,94.148 359.891,97.826 357.740 C 100.191 356.356,100.308 356.214,100.329 354.711 C 100.382 350.870,100.881 350.382,104.806 350.328 C 108.570 350.276,111.028 342.432,108.349 339.026 C 106.676 336.900,106.403 336.975,102.917 340.523 M140.510 340.523 C 137.314 343.768,137.281 343.823,137.103 346.160 C 136.889 348.990,136.452 349.400,133.273 349.760 C 131.035 350.013,130.858 350.124,127.853 353.147 L 124.746 356.272 125.673 356.879 C 130.349 359.940,131.600 360.023,135.638 357.538 C 137.445 356.427,137.507 356.323,137.689 354.130 C 137.921 351.339,138.692 350.606,141.805 350.217 C 146.245 349.662,148.576 343.533,145.975 339.255 C 144.494 336.820,144.057 336.921,140.510 340.523 M178.084 340.515 L 174.800 343.817 174.787 346.008 C 174.770 348.956,174.330 349.414,171.200 349.738 C 168.600 350.008,168.599 350.008,165.461 353.146 L 162.322 356.284 164.274 357.484 C 168.190 359.894,168.697 359.937,172.048 358.137 L 175.000 356.551 175.108 354.376 C 175.276 350.966,175.639 350.549,178.685 350.265 C 183.463 349.819,186.018 344.555,183.748 339.835 C 182.258 336.738,181.786 336.794,178.084 340.515 M215.585 340.318 C 213.016 342.881,212.400 343.727,212.400 344.697 C 212.400 348.357,211.386 349.557,208.177 349.697 C 205.867 349.797,199.433 355.435,200.358 356.549 C 201.558 357.995,206.034 359.763,207.293 359.287 C 210.962 357.902,212.800 356.318,212.800 354.542 C 212.800 351.165,213.485 350.449,216.813 350.346 C 221.824 350.190,223.985 341.016,219.753 337.870 L 218.771 337.141 215.585 340.318 M290.469 340.531 C 287.426 343.589,287.200 343.932,287.200 345.482 C 287.200 348.849,286.465 349.596,283.083 349.664 C 281.378 349.698,281.111 349.873,278.014 352.986 L 274.745 356.272 275.673 356.879 C 280.227 359.861,281.582 359.999,285.200 357.851 C 287.385 356.553,287.402 356.528,287.693 354.172 C 288.026 351.475,288.907 350.437,290.944 350.341 C 291.635 350.308,292.550 350.263,292.977 350.241 C 294.950 350.137,297.438 345.027,296.962 342.054 C 296.144 336.939,294.440 336.539,290.469 340.531 M252.739 340.700 C 250.013 343.478,249.693 343.966,249.658 345.400 C 249.565 349.167,249.102 349.618,245.277 349.671 C 243.831 349.691,243.396 349.988,240.395 353.005 L 237.100 356.317 240.050 357.970 C 243.513 359.910,244.148 359.891,247.826 357.740 C 250.191 356.356,250.308 356.214,250.329 354.711 C 250.377 351.217,250.941 350.427,253.400 350.403 C 258.669 350.353,261.619 342.535,257.892 338.500 C 256.609 337.111,256.011 337.366,252.739 340.700 M13.900 343.893 C 14.835 343.977,16.365 343.977,17.300 343.893 C 18.235 343.809,17.470 343.740,15.600 343.740 C 13.730 343.740,12.965 343.809,13.900 343.893 M6.560 345.019 C 6.419 345.579,6.416 346.149,6.552 346.285 C 6.688 346.422,6.800 346.138,6.800 345.654 C 6.800 345.115,7.149 344.634,7.700 344.412 L 8.600 344.051 7.708 344.025 C 7.074 344.007,6.741 344.296,6.560 345.019 " stroke="none" fill="#040404" fill-rule="evenodd"></path></g></svg>